<?xml version="1.0" encoding="UTF-8"?>
<!DOCTYPE svg PUBLIC "-//W3C//DTD SVG 1.1//EN" "http://www.w3.org/Graphics/SVG/1.1/DTD/svg11.dtd">
<!-- Creator: CorelDRAW 2021 (64-Bit) -->
<svg xmlns="http://www.w3.org/2000/svg" xml:space="preserve" width="12.0476in" height="2.39396in" version="1.1" style="shape-rendering:geometricPrecision; text-rendering:geometricPrecision; image-rendering:optimizeQuality; fill-rule:evenodd; clip-rule:evenodd"
viewBox="0 0 10921.44 2170.18"
 xmlns:xlink="http://www.w3.org/1999/xlink"
 xmlns:xodm="http://www.corel.com/coreldraw/odm/2003">
 <defs>
  <style type="text/css">
   <![CDATA[
    .fil0 {fill:#742A24}
    .fil1 {fill:#CC2008}
    .fil2 {fill:#742A24;fill-rule:nonzero}
    .fil3 {fill:#CC2008;fill-rule:nonzero}
    .fil4 {fill:#FAB140;fill-rule:nonzero}
   ]]>
  </style>
 </defs>
 <g id="Layer_x0020_1">
  <metadata id="CorelCorpID_0Corel-Layer"/>
  <g id="_2694583847392">
   <path class="fil0" d="M2042.63 713.41c36.72,-10.15 80.79,-22.11 112.42,-42.31 40.07,-25.58 75.17,-33.17 84.15,-47.77l9.49 -11.11c16.47,-15.83 6.03,-35.08 23.67,-47.34 -30.22,-116.95 -100.51,-129.32 -211.39,-122.2 -40.75,2.62 -22.76,-0.78 -44.23,-1.36 -12.27,-0.33 -64.04,13.9 -78.41,20.95 -14.51,7.11 -34.33,27.4 -52.51,13.27 -14.99,-11.64 -20.65,-61.83 -32.1,-79.36 -15.39,-23.54 -3.06,-14.81 -25.96,-27.25 -31.67,-17.21 -26.19,-6.15 -50.58,-13.64l-16.21 -5.56c-28.05,-4.28 -68.96,12.66 -95.78,20.09l-479.57 134.64c-31.5,8.65 -34.98,15 -77.83,26.74 -27.21,7.46 -44.22,17.22 -67.46,24.08 -71.41,21.08 -136.65,45.81 -206.72,67.8l-67.83 23.95c-35.78,13.14 -39.18,21.6 -57.82,29.32 -15.69,6.5 -52.74,17.57 -65.76,25.5 -43.73,26.68 -300.44,126.6 -320.15,152.3 -21.05,27.42 -19.5,14.64 -21.14,42.53 -0.85,14.59 -0.8,-1.24 -2.94,13.07 -4.67,31.22 19.84,60.88 -2.79,84.16 -9.37,9.63 -21.05,8.42 -31.58,6.42 -19.52,-3.68 -79.53,16.85 -99.97,24.33 -85.07,55.03 -214.46,115.55 -142.77,243.8 28.41,50.81 107.75,28.94 154.97,34.22 34.25,3.83 167,-38.34 212.16,-50.84 10.85,9.15 278.75,610.52 293.91,638.99 17.32,32.56 21.25,34.5 37.06,59.93 25.31,40.72 4.53,20.21 26.64,32.65 13.25,7.46 17.84,23.22 27.05,35.38 8.65,11.42 21.47,19.19 30.76,29.28l31.26 28.69c5.84,5.16 8.29,7.64 16,10.35 8.1,2.84 12.91,1.41 19.02,7.22 8.77,8.33 3.43,11.72 15.07,16.04 12.62,4.69 5.89,-3 18.72,8.19 13.56,11.83 22.81,5.56 38.23,16.25 8.89,6.17 8.63,5.32 19.75,7.66 79.8,16.74 97.1,13.92 173.91,24.23 202.01,27.12 461.81,-111.92 649.76,-192.61 100.22,-43.02 40.26,-19.51 99.59,-55.82 32.73,-20.03 19.82,-4.89 52.13,-35.45 7.01,-6.63 15.69,-10.94 20.46,-18.85 3.03,-6.38 69.75,-95.91 76.45,-100.8 4.65,-40.1 12.9,-22.67 19.35,-41.02 4.27,-12.12 1.76,-9.35 9.43,-20.05 8.03,-11.19 7.78,-28.86 13.54,-42.05l4.19 -10.71c5.56,-19.1 -4.07,-11.03 11.28,-56.01 4.95,-14.49 1.57,-32.98 3.68,-49.92 2.68,-21.71 9.12,-20.19 4.22,-47.74 -12.59,-70.82 0.76,-51.71 2.82,-73.22 2.79,-29.17 -21.17,-202.3 -28.83,-241.07l-16.34 -110.77c-8.6,-39.09 -18.41,-77.73 -28.89,-115.85 -9.15,-33.35 -56.08,-191.7 -54.64,-204.93 3,-27.66 46.99,-30.37 69.08,-36.44z"/>
   <path class="fil1" d="M1107.18 183c-12.61,-44.14 -0.72,-19.28 -3.09,-46.41 -2.54,-29.09 -14.6,-66.62 -37.94,-87.95 -157.67,-144.04 -427.96,63.45 -315.64,212.6 10.39,13.79 37.45,32.49 -29.18,53.89 -115.58,37.13 -401.08,118.32 -485.86,163.7 -31.46,16.84 -46.33,20.63 -81.46,42.11l-44.18 40.1c-12.97,20.74 -7.42,39.18 -11.7,58.66 6.65,9.43 4.86,2.24 12.93,11.92 24.94,29.94 9.73,13.26 41.55,18.93 6.62,1.18 3.35,3.34 17.76,3.03 181.39,-4 1176.92,-289.88 1393.75,-374.21 24.57,-9.55 45.55,-10.11 70.55,-29.44 9.33,-7.21 53.92,-26.77 66.77,-32.64l33.16 -15.45c14.69,-6.98 4.72,-5.5 12.88,-12.57 4.34,-3.77 10.18,-4.12 16.92,-7.34 23.04,-11.01 43.66,-25.25 40.19,-50.68 -0.61,-4.46 -0.76,-5.84 -2.82,-9.95 -9.39,-18.77 -47.41,-22.04 -64.76,-25.44 -106.96,-23.28 -381.17,36.41 -474.87,56.77 -26.16,5.68 -53.38,12.02 -82.55,19.97 -24.67,6.72 -46.06,16.67 -66.25,11.95 -0.6,-0.14 -6.12,-1.54 -6.15,-1.55z"/>
  </g>
  <path class="fil2" d="M7772.06 987.92c92.12,0 160.94,-21.44 206.47,-64.32 45.53,-42.88 68.29,-100.85 68.29,-173.91 0,-41.29 -5.56,-77.29 -16.68,-107.99 -11.12,-30.71 -23.03,-52.15 -35.73,-64.32 -12.71,-12.17 -24.35,-18.26 -34.94,-18.26 -1.06,0 -20.65,4.5 -58.76,13.5 -38.12,9 -75.7,13.5 -112.76,13.5 -33.88,0 -88.41,-1.06 -163.58,-3.18 -75.17,-2.12 -129.7,-3.18 -163.58,-3.18 -74.11,-1.06 -138.17,8.73 -192.17,29.38 -54,20.65 -91.59,42.62 -112.76,65.91 -21.17,23.29 -31.76,44.47 -31.76,63.52 0,6.35 2.91,14.83 8.73,25.41 5.82,10.59 12.18,22.23 19.06,34.94 6.88,12.71 13.24,34.94 19.06,66.7 5.82,31.76 8.74,69.35 8.74,112.76 0,300.69 -1.06,542.63 -3.18,725.8 0,3.18 1.59,5.82 4.76,7.94 68.82,12.71 135.53,19.06 200.11,19.06 87.88,0 157.23,-6.35 208.05,-19.06l1.59 -1.59 3.18 -3.18c1.06,-1.06 1.59,-3.18 1.59,-6.35l0 -357.34c62.47,9.53 114.35,14.29 155.64,14.29 48.71,0 89.2,-12.97 121.5,-38.91 32.29,-25.94 53.73,-54.26 64.32,-84.97 10.59,-30.7 15.88,-63 15.88,-96.88 0,-37.06 -9,-55.58 -27,-55.58 -7.41,0 -21.71,1.06 -42.88,3.18 -21.17,2.12 -55.85,3.97 -104.03,5.56 -48.17,1.59 -109.32,2.38 -183.44,2.38l0 -111.17c65.64,4.23 124.41,6.35 176.29,6.35zm655.92 -106.41c-136.59,0 -248.55,39.44 -335.9,118.32 -87.35,78.88 -131.02,183.97 -131.02,315.26 0,128.11 43.94,232.41 131.82,312.87 87.88,80.47 199.58,120.7 335.11,120.7 135.53,0 247.76,-39.44 336.7,-118.32 88.94,-78.88 133.41,-183.44 133.41,-313.67 0,-127.06 -44.73,-231.35 -134.2,-312.87 -89.47,-81.53 -201.43,-122.29 -335.9,-122.29zm-1.59 654.33c-19.06,0 -34.68,-6.09 -46.85,-18.26 -12.17,-12.18 -20.91,-30.18 -26.2,-54 -5.29,-23.82 -8.74,-46.32 -10.33,-67.5 -1.59,-21.17 -2.38,-47.65 -2.38,-79.41 0,-48.71 1.59,-87.62 4.76,-116.73 3.18,-29.12 11.38,-55.06 24.62,-77.82 13.24,-22.76 32.56,-34.14 57.97,-34.14 60.35,0 90.53,74.11 90.53,222.34 0,73.06 -6.35,128.91 -19.06,167.55 -12.71,38.65 -37.06,57.97 -73.06,57.97zm978.32 -654.33c-136.59,0 -248.55,39.44 -335.9,118.32 -87.35,78.88 -131.02,183.97 -131.02,315.26 0,128.11 43.94,232.41 131.82,312.87 87.88,80.47 199.58,120.7 335.11,120.7 135.53,0 247.76,-39.44 336.7,-118.32 88.94,-78.88 133.41,-183.44 133.41,-313.67 0,-127.06 -44.73,-231.35 -134.2,-312.87 -89.47,-81.53 -201.43,-122.29 -335.9,-122.29zm-1.59 654.33c-19.06,0 -34.68,-6.09 -46.85,-18.26 -12.17,-12.18 -20.91,-30.18 -26.2,-54 -5.29,-23.82 -8.74,-46.32 -10.33,-67.5 -1.59,-21.17 -2.38,-47.65 -2.38,-79.41 0,-48.71 1.59,-87.62 4.76,-116.73 3.18,-29.12 11.38,-55.06 24.62,-77.82 13.24,-22.76 32.56,-34.14 57.97,-34.14 60.35,0 90.53,74.11 90.53,222.34 0,73.06 -6.35,128.91 -19.06,167.55 -12.71,38.65 -37.06,57.97 -73.06,57.97zm1448.43 -160.4c0,-10.59 0.53,-146.91 1.59,-408.96 1.06,-262.05 1.59,-407.37 1.59,-435.96 0,-4.24 -2.65,-7.41 -7.94,-9.53 -68.82,-12.71 -128.12,-19.06 -177.88,-19.06 -79.41,0 -144.53,6.35 -195.35,19.06 -5.3,2.12 -7.94,5.29 -7.94,9.53l0 489.16 -4.76 0c-42.35,-85.76 -118.59,-128.64 -228.7,-128.64 -68.82,0 -127.85,22.5 -177.08,67.5 -49.23,45 -84.97,100.06 -107.2,165.17 -22.23,65.12 -33.35,135.26 -33.35,210.43 0,67.76 11.12,131.55 33.35,191.38 22.23,59.82 57.7,110.38 106.41,151.67 48.7,41.29 105.88,61.94 171.52,61.94 52.94,0 101.12,-14.03 144.53,-42.09 43.41,-28.06 75.7,-66.97 96.88,-116.73l4.76 0c11.65,49.77 37.06,88.94 76.23,117.53 39.18,28.59 88.41,42.88 147.7,42.88 57.18,0 109.05,-19.32 155.64,-57.97 46.59,-38.65 69.88,-75.97 69.88,-111.97 0,-8.47 -5.29,-17.47 -15.88,-27 -36,-34.94 -54,-91.06 -54,-168.35zm-454.22 100.06c-54,0 -83.65,-54.53 -88.94,-163.58 -1.06,-47.65 6.35,-88.68 22.23,-123.08 15.88,-34.41 38.12,-51.62 66.7,-51.62 26.47,0 47.11,15.09 61.94,45.27 14.82,30.18 22.23,70.67 22.23,121.5 0,51.88 -7.15,93.44 -21.44,124.67 -14.29,31.24 -35.2,46.85 -62.73,46.85z"/>
  <path class="fil3" d="M3580.12 538.6l-66.7 14.29c-44.47,9.53 -106.94,14.29 -187.41,14.29 -40.23,0 -118.06,-3.44 -233.46,-10.33 -115.41,-6.88 -190.05,-10.32 -223.94,-10.32 -177.87,0 -266.81,77.82 -266.81,233.46 0,38.12 8.21,78.35 24.62,120.7 16.41,42.35 32.03,63.53 46.85,63.53l88.94 -11.12c59.29,-6.35 109.05,-9 149.29,-7.94 0,151.41 -0.26,281.37 -0.79,389.9 -0.53,108.53 -0.8,188.47 -0.8,239.82l0 96.08c0,4.24 3.18,7.41 9.53,9.53 60.35,12.71 126,19.06 196.94,19.06 82.58,0 151.41,-6.88 206.46,-20.65 5.3,-3.18 7.94,-6.35 7.94,-9.53l0 -694.04c105.88,8.47 189,-8.21 249.35,-50.03 60.35,-41.82 90.52,-105.08 90.52,-189.79 0,-48.7 -9.79,-93.7 -29.38,-134.99 -19.59,-41.29 -39.97,-61.94 -61.14,-61.94zm829.03 806.8c0,-29.65 1.06,-108.79 3.18,-237.43 2.12,-128.64 3.18,-198.79 3.18,-210.43 0,-4.24 -2.65,-7.41 -7.94,-9.53 -56.12,-10.59 -117,-15.88 -182.64,-15.88 -65.64,0 -125.47,5.29 -179.47,15.88 -4.23,1.06 -6.88,4.24 -7.94,9.53l-20.65 92.12 -4.76 0c-43.41,-85.76 -119.64,-128.64 -228.7,-128.64 -101.64,0 -179.99,43.15 -235.05,129.44 -55.06,86.29 -82.59,190.32 -82.59,312.08 0,67.76 11.12,131.82 33.35,192.17 22.23,60.35 57.7,111.17 106.41,152.47 48.7,41.29 105.88,61.94 171.52,61.94 52.94,0 101.12,-14.03 144.53,-42.09 43.41,-28.06 75.7,-66.97 96.88,-116.73l4.76 0c10.59,48.71 36.79,87.62 78.61,116.73 41.82,29.12 92.38,43.67 151.67,43.67 57.18,0 109.05,-19.32 155.64,-57.97 46.59,-38.65 69.88,-75.97 69.88,-111.97 0,-8.47 -5.29,-17.47 -15.88,-27 -36,-34.94 -54,-91.06 -54,-168.35zm-460.57 100.06c-57.18,0 -86.82,-55.06 -88.94,-165.17 -2.12,-115.41 27,-173.11 87.35,-173.11 57.18,0 85.76,55.59 85.76,166.76 0,114.35 -28.06,171.53 -84.17,171.53zm944.97 -358.93c0,-34.94 15.88,-52.41 47.65,-52.41 42.35,0 56.12,32.29 41.29,96.88 -1.06,5.3 3.7,11.39 14.29,18.27 10.59,6.88 24.09,13.23 40.5,19.06 16.41,5.82 34.94,10.85 55.59,15.09 20.65,4.24 39.97,6.35 57.97,6.35 58.24,0 103.23,-12.71 135,-38.12 31.76,-25.41 47.65,-56.64 47.65,-93.7 0,-56.12 -35.2,-103.5 -105.61,-142.15 -70.41,-38.65 -173.38,-57.97 -308.9,-57.97 -115.41,0 -212.02,26.47 -289.84,79.41 -77.82,52.94 -116.73,116.47 -116.73,190.58 0,46.59 11.12,86.82 33.35,120.7 22.23,33.88 50.03,59.29 83.38,76.23 33.35,16.94 69.35,32.29 108,46.06 38.65,13.76 74.65,24.62 108,32.56 33.35,7.94 61.14,18.79 83.38,32.56 22.23,13.76 33.35,30.18 33.35,49.23 0,14.83 -5.56,27 -16.68,36.53 -11.12,9.53 -24.09,14.29 -38.91,14.29 -45.53,0 -64.06,-29.12 -55.59,-87.35 1.06,-8.47 -7.41,-17.21 -25.41,-26.21 -18,-9 -40.5,-16.67 -67.5,-23.03 -27,-6.35 -52.15,-9.53 -75.44,-9.53 -59.29,0 -105.88,13.23 -139.76,39.71 -33.88,26.47 -50.82,57.7 -50.82,93.7 0,56.12 31.5,101.64 94.5,136.59 63,34.94 165.97,52.41 308.9,52.41 138.7,1.06 249.34,-22.23 331.93,-69.88 82.59,-47.65 123.88,-109.59 123.88,-185.82 0,-47.65 -15.62,-88.68 -46.85,-123.09 -31.23,-34.41 -69.35,-60.88 -114.35,-79.41 -45,-18.53 -90,-35.21 -135,-50.03 -45,-14.82 -83.11,-31.76 -114.35,-50.82 -31.23,-19.06 -46.85,-41.29 -46.85,-66.7zm941.8 -54l160.4 0c4.24,-1.06 6.35,-3.71 6.35,-7.94l0 -130.23c0,-5.29 -2.12,-7.94 -6.35,-7.94l-158.82 0 0 -196.94c-1.06,-4.23 -3.18,-7.41 -6.35,-9.53 -56.12,-12.71 -123.35,-19.06 -201.7,-19.06 -60.35,0 -120.7,6.35 -181.05,19.06l-6.35 7.94 0 198.52 -66.7 0c-4.24,1.06 -6.35,3.7 -6.35,7.94l0 131.82c0,4.23 2.12,6.35 6.35,6.35l68.29 0 0 444.69c0,43.41 8.73,81.26 26.2,113.55 17.47,32.29 40.77,56.64 69.88,73.06 29.12,16.41 59.29,28.32 90.53,35.73 31.23,7.41 64.32,11.12 99.26,11.12 92.12,0 165.17,-23.03 219.17,-69.08 54,-46.06 80.99,-90.79 80.99,-134.2 0,-21.17 -11.65,-30.17 -34.94,-27 -44.47,5.29 -82.05,-0.27 -112.76,-16.68 -30.71,-16.41 -46.06,-48.44 -46.06,-96.08l0 -335.11zm651.16 25.41c18,0 33.62,7.15 46.85,21.44 13.23,14.29 18.27,33.09 15.09,56.38 -5.3,31.76 -21.18,57.71 -47.65,77.82 -26.47,20.12 -63.53,30.18 -111.17,30.18 -3.18,-47.65 3.18,-90.53 19.06,-128.64 15.88,-38.11 41.82,-57.17 77.82,-57.17zm357.34 346.22c-3.18,1.06 -19.32,7.15 -48.44,18.26 -29.12,11.12 -62.47,21.17 -100.05,30.18 -37.59,9 -77.03,13.5 -118.32,13.5 -46.59,0 -87.88,-7.94 -123.88,-23.82 -36,-15.88 -55.59,-40.24 -58.76,-73.06 36,9.53 75.7,15.62 119.12,18.26 43.41,2.65 87.88,0 133.41,-7.94 45.53,-7.94 86.56,-20.91 123.09,-38.91 36.53,-18 66.7,-44.73 90.52,-80.2 23.82,-35.47 35.74,-77.56 35.74,-126.26 0,-68.82 -34.41,-131.82 -103.23,-188.99 -68.82,-57.18 -167.29,-86.29 -295.4,-87.35 -149.29,-1.06 -266.82,38.12 -352.58,117.53 -85.76,79.41 -128.64,182.11 -128.64,308.11 0,129.17 41.82,232.41 125.47,309.7 83.64,77.29 195.87,115.94 336.7,115.94 61.41,0 118.06,-10.33 169.93,-30.97 51.88,-20.65 93.18,-46.06 123.88,-76.23 30.7,-30.18 54.26,-60.62 70.67,-91.32 16.41,-30.7 24.62,-58.23 24.62,-82.58 0,-6.35 -2.12,-12.44 -6.35,-18.27 -4.24,-5.82 -10.06,-7.68 -17.47,-5.56z"/>
  <path class="fil4" d="M1318.2 896.79l-52.69 11.29c-35.13,7.53 -84.48,11.29 -148.05,11.29 -31.78,0 -93.26,-2.72 -184.43,-8.16 -91.17,-5.44 -150.13,-8.16 -176.9,-8.16 -140.51,0 -210.77,61.48 -210.77,184.43 0,30.11 6.48,61.89 19.45,95.35 12.96,33.46 25.3,50.19 37.01,50.19l70.26 -8.78c46.84,-5.02 86.15,-7.11 117.93,-6.27 0,119.61 -0.21,222.28 -0.63,308.01 -0.42,85.73 -0.63,148.88 -0.63,189.45l0 75.91c0,3.34 2.51,5.85 7.53,7.53 47.67,10.04 99.53,15.05 155.57,15.05 65.24,0 119.61,-5.44 163.1,-16.31 4.18,-2.51 6.27,-5.02 6.27,-7.53l0 -548.26c83.64,6.69 149.3,-6.48 196.97,-39.52 47.67,-33.04 71.51,-83.01 71.51,-149.93 0,-38.47 -7.73,-74.02 -23.21,-106.64 -15.48,-32.62 -31.57,-48.93 -48.3,-48.93zm107.9 892.03c0,4.18 1.67,7.11 5.02,8.78 46,10.87 94.1,16.31 144.28,16.31 51.86,0 102.04,-5.44 150.55,-16.31 3.34,-1.67 5.02,-4.18 5.02,-7.53l0 -503.1 104.13 0c3.35,-0.84 5.02,-2.93 5.02,-6.27l0 -102.88c0,-4.18 -1.67,-6.27 -5.02,-6.27l-105.39 0 0 -71.52c0,-97.86 30.95,-146.79 92.84,-146.79 9.2,0 21.75,1.26 37.64,3.77 15.89,2.51 25.51,3.76 28.86,3.76 12.55,0 18.82,-5.02 18.82,-15.05 0,-27.6 -22.79,-54.99 -68.38,-82.18 -45.58,-27.19 -95.14,-40.78 -148.67,-40.78 -85.31,0 -150.55,20.91 -195.72,62.73 -45.17,41.82 -67.75,104.97 -67.75,189.45l0 96.61 -53.95 0c-2.51,0.84 -4.18,2.51 -5.02,5.02l0 104.13c0,4.18 1.67,6.27 5.02,6.27l52.69 0 0 501.85z"/>
 </g>
</svg>
