<?xml version="1.0" encoding="UTF-8"?>
<!DOCTYPE svg PUBLIC "-//W3C//DTD SVG 1.1//EN" "http://www.w3.org/Graphics/SVG/1.1/DTD/svg11.dtd">
<!-- Creator: CorelDRAW 2021 (64-Bit) -->
<svg xmlns="http://www.w3.org/2000/svg" xml:space="preserve" width="13.0456in" height="2.51664in" version="1.1" style="shape-rendering:geometricPrecision; text-rendering:geometricPrecision; image-rendering:optimizeQuality; fill-rule:evenodd; clip-rule:evenodd"
viewBox="0 0 12830.06 2475.06"
 xmlns:xlink="http://www.w3.org/1999/xlink"
 xmlns:xodm="http://www.corel.com/coreldraw/odm/2003">
 <defs>
  <style type="text/css">
   <![CDATA[
    .fil0 {fill:#742A24}
    .fil1 {fill:#CC2008}
    .fil4 {fill:#FAB140}
    .fil2 {fill:#742A24;fill-rule:nonzero}
    .fil3 {fill:#CC2008;fill-rule:nonzero}
   ]]>
  </style>
 </defs>
 <g id="Layer_x0020_1">
  <metadata id="CorelCorpID_0Corel-Layer"/>
  <path class="fil0" d="M2329.59 813.64c41.88,-11.58 92.13,-25.22 128.21,-48.25 45.69,-29.18 85.73,-37.83 95.98,-54.47l10.82 -12.68c18.78,-18.06 6.88,-40.01 26.99,-53.99 -34.46,-133.38 -114.63,-147.49 -241.09,-139.36 -46.48,2.98 -25.95,-0.89 -50.44,-1.55 -14,-0.38 -73.03,15.85 -89.43,23.89 -16.54,8.11 -39.15,31.25 -59.89,15.14 -17.09,-13.27 -23.55,-70.52 -36.61,-90.51 -17.54,-26.85 -3.49,-16.89 -29.61,-31.08 -36.12,-19.63 -29.86,-7.02 -57.68,-15.55l-18.49 -6.34c-31.99,-4.87 -78.65,14.44 -109.23,22.91l-546.94 153.55c-35.93,9.87 -39.9,17.1 -88.76,30.5 -31.03,8.51 -50.44,19.64 -76.94,27.46 -81.44,24.04 -155.85,52.24 -235.76,77.32l-77.35 27.31c-40.81,14.99 -44.69,24.63 -65.94,33.44 -17.89,7.41 -60.15,20.03 -75,29.09 -49.87,30.43 -342.64,144.39 -365.13,173.7 -24,31.27 -22.24,16.69 -24.1,48.5 -0.97,16.63 -0.91,-1.42 -3.36,14.91 -5.33,35.61 22.63,69.44 -3.18,95.98 -10.68,10.99 -24.01,9.6 -36.01,7.33 -22.26,-4.19 -90.7,19.22 -114.02,27.75 -97.02,62.76 -244.59,131.79 -162.83,278.05 32.4,57.95 122.88,33.01 176.74,39.03 39.06,4.36 190.46,-43.73 241.96,-57.98 12.37,10.43 317.91,696.29 335.2,728.76 19.76,37.13 24.24,39.35 42.27,68.35 28.86,46.44 5.16,23.06 30.37,37.24 15.12,8.5 20.35,26.48 30.86,40.35 9.87,13.03 24.49,21.88 35.09,33.4l35.65 32.72c6.66,5.88 9.46,8.72 18.24,11.8 9.23,3.24 14.72,1.61 21.69,8.24 10,9.49 3.91,13.36 17.19,18.29 14.39,5.35 6.72,-3.42 21.35,9.34 15.46,13.49 26.01,6.33 43.6,18.53 10.14,7.04 9.85,6.07 22.52,8.73 91.01,19.09 110.75,15.88 198.34,27.63 230.39,30.92 526.69,-127.65 741.04,-219.67 114.3,-49.06 45.91,-22.25 113.58,-63.66 37.33,-22.84 22.6,-5.57 59.45,-40.43 8,-7.57 17.9,-12.47 23.34,-21.5 3.45,-7.28 79.55,-109.39 87.2,-114.96 5.31,-45.74 14.71,-25.86 22.07,-46.78 4.87,-13.83 2.01,-10.67 10.76,-22.87 9.15,-12.77 8.87,-32.91 15.44,-47.95l4.78 -12.21c6.34,-21.79 -4.64,-12.58 12.87,-63.88 5.65,-16.53 1.8,-37.61 4.19,-56.94 3.06,-24.76 10.4,-23.02 4.82,-54.44 -14.36,-80.76 0.87,-58.98 3.22,-83.51 3.18,-33.27 -24.15,-230.73 -32.88,-274.94l-18.63 -126.33c-9.81,-44.59 -20.99,-88.65 -32.95,-132.13 -10.43,-38.03 -63.96,-218.63 -62.32,-233.72 3.42,-31.55 53.6,-34.64 78.79,-41.56z"/>
  <path class="fil1" d="M1262.72 208.71c-14.38,-50.34 -0.82,-21.99 -3.52,-52.93 -2.9,-33.17 -16.65,-75.98 -43.27,-100.31 -179.81,-164.28 -488.08,72.36 -359.98,242.47 11.85,15.73 42.71,37.05 -33.28,61.46 -131.82,42.34 -457.42,134.94 -554.12,186.69 -35.88,19.21 -52.84,23.53 -92.89,48.03l-50.39 45.74c-14.79,23.66 -8.47,44.69 -13.35,66.91 7.58,10.75 5.54,2.55 14.75,13.6 28.44,34.14 11.1,15.12 47.39,21.58 7.55,1.35 3.82,3.81 20.26,3.45 206.87,-4.56 1342.26,-330.6 1589.55,-426.78 28.01,-10.9 51.95,-11.53 80.46,-33.58 10.64,-8.22 61.5,-30.53 76.15,-37.23l37.81 -17.62c16.75,-7.96 5.38,-6.27 14.69,-14.34 4.95,-4.29 11.61,-4.7 19.29,-8.37 26.28,-12.56 49.8,-28.79 45.84,-57.8 -0.69,-5.09 -0.87,-6.66 -3.21,-11.34 -10.71,-21.41 -54.08,-25.14 -73.85,-29.02 -121.99,-26.55 -434.72,41.52 -541.58,64.75 -29.84,6.48 -60.88,13.71 -94.15,22.77 -28.13,7.66 -52.53,19.01 -75.56,13.63 -0.68,-0.16 -6.98,-1.76 -7.01,-1.77z"/>
  <path class="fil2" d="M9177.22 1108.66c106.84,0 186.66,-24.87 239.47,-74.6 52.81,-49.74 79.21,-116.97 79.21,-201.71 0,-47.9 -6.45,-89.65 -19.34,-125.26 -12.89,-35.61 -26.71,-60.48 -41.45,-74.6 -14.74,-14.12 -28.25,-21.18 -40.53,-21.18 -1.23,0 -23.94,5.22 -68.15,15.66 -44.21,10.44 -87.81,15.66 -130.79,15.66 -39.3,0 -102.54,-1.23 -189.74,-3.69 -87.19,-2.45 -150.43,-3.68 -189.73,-3.68 -85.96,-1.23 -160.26,10.13 -222.89,34.08 -62.63,23.95 -106.23,49.43 -130.79,76.45 -24.56,27.01 -36.84,51.58 -36.84,73.68 0,7.37 3.38,17.19 10.13,29.47 6.76,12.28 14.12,25.79 22.1,40.52 7.98,14.74 15.35,40.53 22.1,77.37 6.76,36.84 10.13,80.44 10.13,130.79 0,348.77 -1.23,629.37 -3.69,841.83 0,3.69 1.84,6.75 5.53,9.21 79.82,14.74 157.19,22.1 232.1,22.1 101.93,0 182.37,-7.37 241.31,-22.1l1.84 -1.84 3.68 -3.68c1.23,-1.23 1.84,-3.69 1.84,-7.37l0 -414.47c72.46,11.05 132.63,16.58 180.52,16.58 56.49,0 103.47,-15.05 140.92,-45.13 37.46,-30.09 62.32,-62.94 74.6,-98.55 12.28,-35.61 18.42,-73.07 18.42,-112.36 0,-42.98 -10.43,-64.48 -31.31,-64.48 -8.6,0 -25.18,1.23 -49.74,3.69 -24.56,2.45 -64.78,4.6 -120.66,6.45 -55.88,1.84 -126.79,2.76 -212.76,2.76l0 -128.95c76.14,4.91 144.3,7.37 204.47,7.37zm760.78 -123.42c-158.42,0 -288.29,45.74 -389.6,137.23 -101.31,91.49 -151.97,213.38 -151.97,365.65 0,148.6 50.96,269.56 152.89,362.89 101.93,93.33 231.49,140 388.68,140 157.19,0 287.36,-45.74 390.52,-137.23 103.16,-91.49 154.73,-212.76 154.73,-363.81 0,-147.37 -51.88,-268.33 -155.66,-362.89 -103.77,-94.56 -233.64,-141.84 -389.6,-141.84zm-1.84 758.94c-22.1,0 -40.22,-7.06 -54.34,-21.19 -14.12,-14.12 -24.25,-35 -30.39,-62.63 -6.14,-27.63 -10.13,-53.73 -11.97,-78.29 -1.84,-24.56 -2.76,-55.26 -2.76,-92.11 0,-56.49 1.84,-101.62 5.53,-135.39 3.69,-33.77 13.2,-63.86 28.55,-90.26 15.35,-26.4 37.76,-39.61 67.24,-39.61 70,0 105,85.97 105,257.89 0,84.74 -7.37,149.52 -22.1,194.34 -14.74,44.82 -42.98,67.24 -84.74,67.24zm1134.72 -758.94c-158.42,0 -288.29,45.74 -389.6,137.23 -101.31,91.49 -151.97,213.38 -151.97,365.65 0,148.6 50.96,269.56 152.89,362.89 101.93,93.33 231.49,140 388.68,140 157.19,0 287.36,-45.74 390.52,-137.23 103.16,-91.49 154.73,-212.76 154.73,-363.81 0,-147.37 -51.88,-268.33 -155.66,-362.89 -103.77,-94.56 -233.64,-141.84 -389.6,-141.84zm-1.84 758.94c-22.1,0 -40.22,-7.06 -54.34,-21.19 -14.12,-14.12 -24.25,-35 -30.39,-62.63 -6.14,-27.63 -10.13,-53.73 -11.97,-78.29 -1.84,-24.56 -2.76,-55.26 -2.76,-92.11 0,-56.49 1.84,-101.62 5.53,-135.39 3.69,-33.77 13.2,-63.86 28.55,-90.26 15.35,-26.4 37.76,-39.61 67.24,-39.61 70,0 105,85.97 105,257.89 0,84.74 -7.37,149.52 -22.1,194.34 -14.74,44.82 -42.98,67.24 -84.74,67.24zm1679.98 -186.05c0,-12.28 0.61,-170.39 1.84,-474.33 1.23,-303.94 1.84,-472.49 1.84,-505.65 0,-4.91 -3.07,-8.6 -9.21,-11.05 -79.82,-14.74 -148.59,-22.1 -206.31,-22.1 -92.11,0 -167.63,7.37 -226.58,22.1 -6.14,2.45 -9.21,6.14 -9.21,11.05l0 567.36 -5.53 0c-49.12,-99.47 -137.54,-149.21 -265.26,-149.21 -79.82,0 -148.29,26.09 -205.39,78.29 -57.1,52.19 -98.55,116.05 -124.34,191.58 -25.79,75.52 -38.68,156.88 -38.68,244.07 0,78.6 12.89,152.59 38.68,221.97 25.79,69.39 66.93,128.03 123.42,175.92 56.49,47.9 122.81,71.84 198.94,71.84 61.4,0 117.28,-16.27 167.63,-48.81 50.35,-32.54 87.8,-77.68 112.37,-135.39l5.53 0c13.51,57.72 42.98,103.16 88.42,136.31 45.44,33.16 102.54,49.74 171.31,49.74 66.31,0 126.49,-22.41 180.52,-67.24 54.03,-44.82 81.05,-88.11 81.05,-129.87 0,-9.82 -6.14,-20.26 -18.42,-31.32 -41.75,-40.52 -62.63,-105.61 -62.63,-195.26zm-526.83 116.05c-62.63,0 -97.02,-63.24 -103.16,-189.73 -1.23,-55.26 7.37,-102.85 25.79,-142.76 18.42,-39.91 44.21,-59.86 77.37,-59.86 30.7,0 54.65,17.5 71.84,52.5 17.19,35 25.79,81.97 25.79,140.92 0,60.17 -8.29,108.38 -24.87,144.61 -16.58,36.23 -40.83,54.34 -72.76,54.34z"/>
  <path class="fil3" d="M4315.16 587.51l-77.37 16.58c-51.58,11.05 -124.03,16.58 -217.36,16.58 -46.67,0 -136.93,-3.99 -270.79,-11.97 -133.86,-7.98 -220.43,-11.98 -259.73,-11.98 -206.31,0 -309.47,90.26 -309.47,270.79 0,44.21 9.52,90.88 28.55,140 19.03,49.12 37.15,73.68 54.34,73.68l103.16 -12.89c68.77,-7.37 126.49,-10.44 173.15,-9.21 0,175.61 -0.31,326.36 -0.92,452.23 -0.61,125.87 -0.92,218.59 -0.92,278.15l0 111.45c0,4.91 3.69,8.6 11.05,11.05 70,14.74 146.14,22.1 228.42,22.1 95.79,0 175.61,-7.98 239.47,-23.95 6.14,-3.68 9.21,-7.37 9.21,-11.05l0 -804.99c122.8,9.83 219.21,-9.52 289.2,-58.03 70,-48.51 105,-121.88 105,-220.13 0,-56.49 -11.36,-108.68 -34.08,-156.57 -22.72,-47.9 -46.36,-71.84 -70.92,-71.84zm961.57 935.78c0,-34.39 1.23,-126.18 3.68,-275.39 2.46,-149.21 3.69,-230.56 3.69,-244.07 0,-4.91 -3.07,-8.6 -9.21,-11.05 -65.09,-12.28 -135.7,-18.42 -211.84,-18.42 -76.14,0 -145.52,6.14 -208.16,18.42 -4.91,1.23 -7.98,4.91 -9.21,11.05l-23.95 106.84 -5.53 0c-50.35,-99.47 -138.77,-149.21 -265.26,-149.21 -117.89,0 -208.77,50.04 -272.63,150.13 -63.86,100.09 -95.79,220.74 -95.79,361.97 0,78.59 12.89,152.89 38.68,222.89 25.79,70 66.93,128.95 123.42,176.84 56.49,47.9 122.81,71.84 198.94,71.84 61.4,0 117.28,-16.27 167.63,-48.81 50.35,-32.54 87.8,-77.68 112.37,-135.39l5.53 0c12.28,56.49 42.67,101.62 91.18,135.39 48.51,33.77 107.15,50.66 175.92,50.66 66.31,0 126.49,-22.41 180.52,-67.24 54.03,-44.82 81.05,-88.11 81.05,-129.87 0,-9.82 -6.14,-20.26 -18.42,-31.32 -41.75,-40.52 -62.63,-105.61 -62.63,-195.26zm-534.2 116.05c-66.31,0 -100.7,-63.86 -103.16,-191.58 -2.46,-133.86 31.31,-200.78 101.31,-200.78 66.31,0 99.47,64.47 99.47,193.42 0,132.63 -32.54,198.94 -97.63,198.94zm1096.03 -416.31c0,-40.53 18.42,-60.79 55.26,-60.79 49.12,0 65.09,37.46 47.89,112.37 -1.23,6.14 4.3,13.2 16.58,21.18 12.28,7.98 27.94,15.35 46.97,22.1 19.03,6.75 40.52,12.59 64.47,17.5 23.94,4.91 46.36,7.37 67.24,7.37 67.54,0 119.73,-14.74 156.57,-44.21 36.84,-29.47 55.26,-65.7 55.26,-108.69 0,-65.08 -40.83,-120.04 -122.5,-164.86 -81.66,-44.83 -201.09,-67.24 -358.28,-67.24 -133.86,0 -245.92,30.7 -336.18,92.1 -90.26,61.41 -135.39,135.09 -135.39,221.05 0,54.04 12.9,100.7 38.68,140 25.79,39.3 58.03,68.77 96.71,88.42 38.68,19.65 80.44,37.46 125.26,53.42 44.83,15.96 86.58,28.55 125.26,37.76 38.68,9.21 70.92,21.8 96.71,37.76 25.79,15.96 38.68,35 38.68,57.1 0,17.19 -6.45,31.32 -19.34,42.37 -12.89,11.05 -27.94,16.58 -45.13,16.58 -52.81,0 -74.3,-33.77 -64.47,-101.31 1.23,-9.83 -8.6,-19.96 -29.47,-30.39 -20.88,-10.44 -46.97,-19.34 -78.29,-26.71 -31.32,-7.37 -60.48,-11.05 -87.5,-11.05 -68.77,0 -122.81,15.35 -162.1,46.05 -39.3,30.7 -58.95,66.93 -58.95,108.68 0,65.09 36.53,117.89 109.6,158.42 73.07,40.53 192.5,60.79 358.28,60.79 160.88,1.23 289.21,-25.79 385,-81.05 95.78,-55.26 143.68,-127.1 143.68,-215.52 0,-55.26 -18.11,-102.85 -54.34,-142.76 -36.23,-39.91 -80.44,-70.61 -132.63,-92.11 -52.19,-21.49 -104.38,-40.83 -156.57,-58.03 -52.19,-17.19 -96.4,-36.84 -132.63,-58.95 -36.23,-22.1 -54.34,-47.89 -54.34,-77.37zm1092.35 -62.63l186.05 0c4.91,-1.23 7.37,-4.3 7.37,-9.21l0 -151.05c0,-6.14 -2.45,-9.21 -7.37,-9.21l-184.21 0 0 -228.41c-1.23,-4.91 -3.68,-8.6 -7.37,-11.05 -65.09,-14.74 -143.07,-22.1 -233.94,-22.1 -70,0 -140,7.37 -210,22.1l-7.37 9.21 0 230.26 -77.37 0c-4.91,1.23 -7.37,4.3 -7.37,9.21l0 152.89c0,4.91 2.46,7.37 7.37,7.37l79.21 0 0 515.78c0,50.35 10.13,94.25 30.39,131.71 20.27,37.46 47.28,65.7 81.05,84.74 33.77,19.03 68.77,32.85 105,41.45 36.23,8.6 74.6,12.89 115.13,12.89 106.84,0 191.58,-26.71 254.21,-80.13 62.63,-53.42 93.95,-105.31 93.95,-155.66 0,-24.56 -13.51,-35 -40.53,-31.31 -51.58,6.14 -95.17,-0.31 -130.79,-19.34 -35.61,-19.03 -53.42,-56.18 -53.42,-111.45l0 -388.68zm755.26 29.47c20.88,0 38.99,8.29 54.34,24.87 15.35,16.58 21.18,38.37 17.5,65.39 -6.14,36.84 -24.56,66.93 -55.26,90.26 -30.7,23.33 -73.68,35 -128.94,35 -3.68,-55.26 3.69,-105 22.1,-149.21 18.42,-44.21 48.51,-66.31 90.26,-66.31zm414.47 401.58c-3.68,1.23 -22.41,8.29 -56.18,21.18 -33.77,12.89 -72.46,24.56 -116.05,35 -43.6,10.44 -89.34,15.66 -137.24,15.66 -54.03,0 -101.93,-9.21 -143.68,-27.63 -41.76,-18.42 -64.47,-46.67 -68.16,-84.74 41.76,11.05 87.81,18.11 138.16,21.18 50.35,3.07 101.93,0 154.73,-9.21 52.81,-9.21 100.4,-24.25 142.76,-45.13 42.37,-20.88 77.37,-51.89 105,-93.03 27.63,-41.14 41.45,-89.95 41.45,-146.45 0,-79.82 -39.91,-152.89 -119.74,-219.21 -79.82,-66.31 -194.03,-100.09 -342.63,-101.31 -173.15,-1.23 -309.47,44.21 -408.94,136.31 -99.47,92.11 -149.21,211.23 -149.21,357.37 0,149.82 48.51,269.56 145.52,359.21 97.02,89.65 227.19,134.47 390.52,134.47 71.23,0 136.93,-11.97 197.1,-35.92 60.17,-23.94 108.07,-53.42 143.68,-88.42 35.61,-35 62.93,-70.3 81.97,-105.92 19.03,-35.61 28.55,-67.54 28.55,-95.79 0,-7.37 -2.45,-14.43 -7.37,-21.18 -4.91,-6.76 -11.67,-8.91 -20.26,-6.45z"/>
  <g id="_2694497151568">
   <path class="fil4" d="M1247.99 1068.63c-2.22,3.48 2.45,2.38 -5.8,13.18l-2.52 4.64c-3.37,9.44 -6.03,5.58 -9.26,22.07 -0.64,3.28 0.49,0.84 -0.96,3.59 -2.14,4.05 -2.14,1.31 -3.9,8.65 -2.04,8.5 -4.9,8.98 -6.9,15.65 -1.1,3.68 -0.88,2.92 -1.24,7.12 -0.57,6.49 -0.12,3.29 -3.43,6.26 -6.74,6.05 -5.46,11.88 -3.87,21.44 -5.7,2.83 -5.7,11.37 -7.14,16.95 -1.13,4.38 -3.24,4.36 -3.64,8.83 -0.17,1.86 0.05,3.95 -0.02,5.66l-1.53 10.19c-0.42,6.37 -4.29,7.01 -4.56,13.93 -0.33,8.71 1.52,14.73 -1.75,21.62 -3.44,7.26 -1.93,11.6 -2.18,20.1 -0.14,4.69 0.63,6.76 1.36,12.02 0.49,3.49 0.55,8.2 0.65,11.75 0.36,12.97 -5.92,4.48 3.71,49.8 3.3,15.5 6.1,33.9 12.28,47.95 3.6,8.17 7.63,11.28 10.27,20.41l8.5 22.62c1.96,3.62 3.78,5.8 6.47,8.43 4.76,4.65 7.36,13.55 10.95,19.31l4.11 4.53c0.16,0.11 0.41,0.23 0.58,0.34l2.7 2.29c1.15,1.43 1.69,2.92 2.83,4.26 3.57,4.22 5.79,9.91 10.09,12.82 5.18,3.51 7.3,13.69 11.76,18.01 1.66,1.61 2.16,0.95 4.11,2.2 1.55,0.99 2.63,2.61 3.86,4.16 3.28,4.15 3.59,3.5 5.27,10.37 2.58,0.93 6.28,1.94 7.94,4.05 3.66,4.69 -2.54,-4.55 0.82,1.38l4.15 5.73c10.14,9.1 5.39,2.84 10.15,6.67 3.6,2.9 5.56,6.64 9.1,9.53l6.04 6.98c2.3,2.76 4.34,3.11 7.27,4.72 3.88,2.14 5.26,4.07 7.85,8.01 0.49,0.74 0.76,1.24 1.21,1.91 3.37,5.02 6.52,3.02 10.81,6.73 2.15,1.86 3.35,4.79 5.73,5.9 4.27,2 4.24,-1.15 8.41,3.3 2.12,2.27 -0.21,0.81 2.89,2.93 4.66,3.19 6.75,2.85 10.25,7.93 2.72,3.95 3.68,3.18 7.29,4.63 4.52,1.81 4.77,7.23 9.24,9.35l3.8 1.63c4.67,2.78 1.53,3.58 6.56,5.97 7.33,3.49 12.88,10.66 20.26,14.71 1.4,0.77 0.51,0.12 1.83,0.93 3.89,2.41 6.02,7.39 9.91,9.51 0.16,0.09 0.43,0.19 0.6,0.27 5.88,2.83 4.23,3.81 7.9,6.66 3.38,2.62 8.48,1.62 11.38,4.92 5.34,6.06 6.89,3.48 11.31,7.21 2.4,2.02 3.5,4.15 6.64,5.68 4.4,2.15 6.2,7.26 10.79,9.45l4.56 1.84c5.46,3.74 -0.37,3.08 10.66,6.79 5.87,1.97 4.36,7.75 10.81,9.33 0.84,0.21 2.36,0.35 2.87,0.46 5.32,1.22 4.28,4.72 12.25,7.31 2.4,0.78 3.31,2.06 4.97,4.11 4.27,5.25 9.91,3.35 10.68,5.15 1.14,2.68 5.02,6.25 7.74,6.68 3.07,0.49 4.51,0.26 5.92,2.99 0.24,0.47 0.84,1.78 1.05,2.25 0.38,0.87 1.09,2.33 1.62,4.29 5.9,-0.48 1.19,1.7 8.7,0.21 1.26,4.87 3.28,6.99 6.8,9.41l5.09 3.3c4.94,3.14 7,8.62 12.68,11.29 2.37,1.11 5.15,1.93 7.31,4.01 4,3.86 3.49,2.73 7.32,4.49 7.17,3.29 2.18,13.09 14.06,10.74 1.12,4.88 2.02,6.42 4.7,9.1 4.08,4.08 8.84,3.22 11.9,7.87 0.97,1.47 1.66,3.15 2.64,4.61 1.49,2.23 3.26,3.75 5.62,4.4l1.47 0.35c2.39,0.57 3.38,4.95 4.57,7.23 0.35,0.67 3.59,7.03 3.92,7.46l0.9 0.93c2.77,2.49 3.48,1.5 6.13,2.5 1.68,0.64 0.91,0.23 1.95,1.05 2.76,2.2 4.93,5.52 7.98,7.47 4.74,3.02 1.92,-1.65 5.34,5.96 1.77,3.95 2.36,4.41 3.88,7.62 1.41,2.97 2.05,4.86 4.26,6.74 3.4,2.89 7.02,4.91 9.83,8.43l2.85 4.34c2.59,3.36 6.4,4.14 8.25,7.21 2.54,4.2 3.05,11.38 6.16,16.65 2.52,4.27 4.66,10.6 8.6,13.8 4.04,3.29 5.76,9.14 7.83,14.49 1.29,3.33 1.74,2.69 3.3,7.33 2.61,7.82 8.78,13.1 12.27,20.64 2.21,4.78 4.06,13.58 5.72,18.62 3.82,11.63 7.56,24.19 11.24,34.81 2.11,6.1 3.35,11.27 5.61,17.45 9.2,25.21 11.22,41.06 15.47,65.76l3.64 21.69c1.48,7.01 -0.57,5.16 -0.87,10.83 -0.51,9.72 2,36.52 10.84,41.5 3.96,2.23 14.91,0.44 17.25,-7.65 0.64,-2.21 1.1,-3.73 1.66,-6.13l0.84 -4.26c0.05,-0.23 0.07,-0.5 0.12,-0.74 2.13,-9.67 8.52,-7.23 4.67,-27.73 10.31,-3.35 3.22,-14.98 7.58,-24.81l1.54 -5.34c1.39,-7.24 -0.31,-15.92 0.55,-23.75l0.67 -3.65c2.59,-7.88 4.4,-7.72 4.21,-17.23 -0.13,-6.69 -3.62,-15.56 -1.49,-22.86 0.06,-0.21 0.17,-0.47 0.24,-0.67 1.96,-5.78 1.24,-12.24 1.3,-18.31 0.14,-15.16 -3.29,-30.41 -5.37,-46.05 -1.2,-9.05 1.65,-10.77 -3.29,-33.45 -1.32,-6.07 -2.61,-9.71 -4.31,-15.68 -1.55,-5.44 -1.18,-1.54 -3.08,-6.25 -0.85,-2.11 -1.94,-5.91 -2.46,-7.38 -1.82,-5.18 -2.36,-10.79 -4.26,-15.94 -1.43,-3.89 -3.81,-11.2 -4.77,-15.14l-3.69 -10.14c-0.77,-1.73 -0.83,-2.59 -1.33,-4.36 -1.47,-5.19 -3.28,-9.27 -5.8,-13.13 -3.31,-5.06 -4.69,-3.47 -7.21,-11.43 -1.58,-5.01 -3.54,-9.64 -5.68,-14.78 -2.41,-5.8 -3.9,-10.13 -8.56,-13.79 -0.15,-0.12 -0.4,-0.26 -0.55,-0.38 -0.15,-0.12 -0.4,-0.26 -0.55,-0.39 -3.1,-2.63 -8.01,-16.64 -14.71,-25.99l-9.55 -13.85c-4.34,-6.71 -8.45,-8.59 -10.28,-12.92 -2.8,-6.61 -7.09,-10.32 -12.36,-13.95 -4.36,-3.01 -1.47,-2.03 -4.45,-5.76 -1.24,-1.56 -2.37,-2.43 -4.14,-4.77l-6.03 -6.69c-4.37,-3.3 -7.29,-11.17 -10.18,-12.79 -2.57,-1.44 -1.66,0.67 -5.46,-2.9 -4.25,-4 -7.94,-10.35 -13.11,-13.14 -1.7,-0.92 -0.9,-0.06 -2.33,-1.61l-3.49 -5.89c-1.83,-2.63 -1.81,-2.25 -4.1,-3.28 -2.44,-1.09 -4.03,-1.64 -5.73,-3.86 -2.59,-3.38 0.67,-0.12 -2.17,-2.75l-4.45 -4.45c-3.74,-4.65 -5.47,-2.37 -11.3,-11.19 -0.12,-0.19 -0.27,-0.42 -0.39,-0.6l-11.94 -8.74c-2.05,-1.89 0.18,-0.13 -2.05,-1.75 -1.8,-1.31 -1.21,-0.84 -2.89,-1.61 -2.5,-1.15 -3.15,-1.15 -5.1,-3.58 -5.62,-6.99 -8.72,-5.9 -14.85,-11.78 -4.03,-3.87 -5.12,-4.1 -9.87,-6.92 -3.53,-2.09 -4.96,-6.62 -8.73,-8.95 -0.45,-0.28 -1.79,-0.7 -2.51,-0.95 -2.58,-0.89 -0.79,0.07 -3.26,-1.34 -3.27,-1.86 -5.94,-6.75 -9.17,-8.05 -3.34,-1.34 -2.85,0.97 -6.42,-2.86 -5.83,-6.24 -6.84,-4.21 -11.38,-8.48 -4.16,-3.92 -10.31,-5.85 -13.14,-9.69 -3.26,-4.43 -1.96,-3.04 -6.69,-4.03 -7.02,-1.46 -6.64,-7.11 -13.42,-9.11 -5.15,-1.52 -1.84,0.65 -5.46,-3.12l-1.41 -1.53c-0.14,-0.15 -0.34,-0.34 -0.49,-0.48 -3.92,-3.88 -7.71,-4.68 -12.72,-8.89 -3.64,-3.05 -7.63,-2.4 -10.9,-5.58 -2.61,-2.54 -1.57,-2.89 -5.14,-4.22 -1.91,-0.71 -4.53,-0.88 -6.11,-1.8 -4.06,-2.35 -2.55,-4.85 -9.56,-7.53 -9.59,-3.67 -0.44,-5.54 -11.57,-9.46 -10.18,-3.59 -2.72,-4.95 -14.42,-7.49 -5.54,-1.2 -4.6,-4.86 -9.59,-7.73l-30.79 -20.86c-5.24,-3.91 -8.13,-8.61 -14.02,-11.81 -3.38,-1.84 -2.16,-0.57 -4.52,-4.54 -2.96,-5 -4.17,-3.38 -7.97,-6.03l-3.12 -4.1c-2.05,-2.59 -5.14,-4.34 -7.87,-6.29 -1.23,-0.88 -1.43,-0.9 -2.23,-1.52l-6.74 -7.14c-1.57,-1.99 -2.23,-3.76 -3.83,-5.21 -2.78,-2.51 -2.84,-0.95 -5.44,-2.59 -2.67,-1.68 -3.96,-6.5 -8.26,-9.71 -3.57,-2.66 -6.24,-5.85 -8.66,-10.5 -4.66,-8.97 -1.42,-3.87 -8.65,-8.67 -6.35,-4.22 -8.19,-16.29 -14.76,-22 -1.6,-1.4 -0.24,-0.01 -1.99,-1.97 -0.19,-0.22 -0.75,-0.86 -0.93,-1.09l-4.75 -8.96c-3.7,-7.62 -4.08,-17.57 -8.71,-25.04 -0.14,-0.22 -0.28,-0.43 -0.41,-0.66l-5.43 -12.87c-2.48,-5.96 -5.09,-10.62 -6.95,-19.33 -2.69,-12.58 -5.57,-28.2 -5.11,-40.53 0.19,-5.28 1.56,-7.23 0.31,-14.1 -0.53,-2.88 -1.29,-5.43 -1.53,-8.37 -0.69,-8.3 -2.98,-28.25 -1.49,-34.91l0.58 -2.07c4.89,-17.09 -1.74,-28.61 1.74,-33.63l3.63 -6.32c2.53,-8.24 -5.18,-14.49 3.29,-27.73l1.96 -3.46c0.89,-2.46 -0.04,-10.74 -0.17,-13.52 -0.43,-9.13 1.02,-3.9 3.81,-9.9 3.85,-8.29 -0.32,-15.19 2.01,-22.81 3.27,-10.69 4.66,-6.58 5.37,-19.68 0.67,-12.34 4.04,-6.12 4.86,-26.65 0.29,-7.33 4.27,-5.31 5.29,-15.14 0.17,-1.6 0.4,-3.64 0.65,-5.23l1.43 -5.58c1.58,-5.18 -1.75,-7.38 -0.39,-11.94 -6.42,-1.46 -12.06,-9.51 -17.59,-0.61 -0.02,0.04 -1.63,2.87 -1.63,2.88 -0.84,2.17 0.09,-0.28 -0.52,2.01 -0.5,1.89 0.12,0.51 -0.57,2.13 -1.25,2.99 -2.8,3.21 -4.69,5.17 -3.81,3.93 -0.7,3.19 -2.35,7.19 -1.83,4.45 -2.16,1.46 -6.2,4.32 -2.45,1.74 -2.23,4.16 -2.88,6.6 -1.34,4.93 -4.23,4.48 -6.75,8.66 -0.1,0.16 -0.24,0.41 -0.32,0.57 -0.69,1.37 -0.09,-0.24 -0.69,1.87 -1.36,4.81 0.91,2.84 -3.26,6.22 -8.1,6.55 -2.47,7.35 -7.98,11.76 -2.4,1.93 -0.85,-0.24 -2.75,2.12 -2.34,2.91 -1.08,7.79 -3.28,10.73 -2.35,3.14 -4.08,2.13 -5.92,4.99z"/>
   <path class="fil4" d="M1391.52 1190.61c3.42,16.15 6.95,32.1 12.58,47.74 2.97,8.26 6.02,18.83 9.66,26.17 2.13,4.29 4.12,5.9 5.89,10.87 1.9,5.35 3.75,8.2 5.6,12.57 7.63,17.99 2.4,8.33 10.4,14.86 5.62,4.58 4.13,14.3 13.17,20.68 4.75,3.35 23.08,26.99 26.46,31.2 3.54,4.39 4.82,4.69 8.63,7.8 3.2,2.61 4.81,5.98 7.59,9.4 3.34,4.12 5.25,3.05 9.21,6.89l21.62 17.64c1.86,2.22 0.68,2.17 3.38,4.68l1.05 0.85c4.84,3.88 28.06,21.72 32.75,23.97 1.79,0.86 0.68,-0.28 3.04,1.5 2.68,2.01 5.3,6.78 8.1,8.62 3.54,2.32 5.69,2.87 8.91,6.16 3.07,3.14 5.9,3.91 9.83,5.87l4.57 2.92c1.78,1.18 3.35,2.14 5.26,3.06 3.52,1.69 5.23,3.67 8.11,6.08 0.15,0.13 0.37,0.31 0.53,0.43l11.5 8.35c2.43,1.8 5.51,2.3 7.75,4.19l9.55 6.41c5.8,2.72 7.96,7.17 13.63,10.01 5.2,2.59 8.05,7.24 13.62,10.02 6.63,3.3 11.68,9.63 18.32,12.72 9.78,4.56 12.82,11.34 18.52,12.45 7.01,1.37 8.15,7.24 17.85,14.64 0.2,0.16 2.05,1.73 2.09,1.77 0.15,0.15 0.33,0.36 0.47,0.52 5.18,5.78 6.62,4.19 10.39,7.55 2.45,2.2 1.85,3.14 3.82,5.33 2.74,3.04 6.28,3.64 9.18,6.94l16.67 15.15c3.26,1.96 1.82,1.63 4.14,3.62l3.52 1.98c3.8,2.24 5.93,9.96 8.5,11.75 3.07,2.13 6.82,2.64 9.66,6.2 2.34,2.93 3.74,7.96 6.11,10.52 3.6,3.89 9.35,5.73 14.93,18 5.09,11.17 7.92,3.77 14.33,18.85 1.82,4.29 4.68,6.05 7.52,9.49 8.4,10.18 4.37,11.95 12.34,23.17 11.46,16.13 9.56,20.82 17.11,35.75 14.98,29.63 14.31,28.25 23.13,68.87l17.87 84.08c1.91,9.18 1.93,15.14 2.97,23.71 1.01,8.39 -0.88,13.94 0.95,22.36 0.68,3.16 1.41,6.97 4.57,9.03 4.73,3.08 12.42,3.38 15.54,-5.65l6.99 -28.5c1.37,-6.93 4.47,-10.95 5.39,-18.27 0.67,-5.4 3.88,-11.69 5.25,-18.25 1.26,-6.06 0.46,-13.62 2.23,-19.5 1.44,-4.79 2.39,-1.55 3.32,-8.26 0.45,-3.18 0.67,-7.26 0.53,-10.88 -0.16,-3.95 0.06,-5.82 1.72,-9.41 2.29,-4.97 0.81,-9.04 0.98,-15.43l1.04 -37.98c0.11,-9.37 -3.64,-27.13 -3.12,-34.17 0.61,-8.33 -7.62,-48.32 -10.81,-60.01 -1.44,-5.27 -2.88,-5.88 -4.56,-12.68l-12.53 -40.37c-0.81,-1.85 -1.72,-4.02 -2.8,-5.58 -1.13,-1.61 -2.33,-2.41 -3.57,-4.38 -2.25,-3.55 -3.47,-8.63 -5.1,-12.1 -1.12,-2.37 -1.82,-3.16 -2.84,-5.49 -2.06,-4.66 -3.57,-8.92 -6.72,-13.19 -0.13,-0.17 -0.31,-0.38 -0.44,-0.55l-1.27 -1.73c-2.81,-4.06 -4.07,-5.31 -7.17,-8.82 -3,-3.4 -4.2,-6.16 -6.3,-10.01 -2.73,-4.99 -5.35,-4.19 -7.53,-8.24l-9.15 -15.78c-3.07,-4.68 -7.48,-8.25 -11.27,-12.47 -3.02,-3.38 -3.31,-6.17 -6.93,-9.22 -3.93,-3.32 -3.83,-2.13 -7.36,-7.21 -2.28,-3.28 -4.02,-5.98 -7.53,-8.33l-15.86 -15.23c-8.97,-10.83 -11.4,-9.42 -16.26,-14.61 -3.8,-4.06 -2.85,-5.22 -8.19,-7.39 -5.89,-2.4 -4,-3.87 -8.22,-7.09 -4.45,-3.38 -3.98,-0.26 -7.98,-6.19 -4.19,-6.2 -10.93,-9.83 -16.71,-14.08l-2.06 -1.75c-1.24,-1.19 -0.27,-0.56 -1.94,-1.99 -2.09,-1.79 -2.48,-1.51 -4.76,-2.64 -3.64,-1.8 -5.33,-4.8 -8.28,-7.06 -3.59,-2.75 -5.47,-1.72 -9.16,-5.66 -2.82,-3.01 -3.12,-2.74 -6.86,-4.42 -3.9,-1.74 -7.11,-5.53 -10.45,-8.6l-26.29 -17.87c-8.2,-3.58 -3.18,-1.75 -8.62,-6.54 -3.98,-3.5 -4.34,-0.61 -8.91,-6.19 -3.67,-4.47 -4.56,-3.3 -9.52,-5.13 -5.92,-2.19 -3.22,-4 -8.39,-6.92 -5.27,-2.98 -5.37,0.49 -9.48,-5.27 -2.58,-3.61 -4.17,-3.62 -8.31,-5.76 -3.79,-1.96 -4.29,-4.57 -8.89,-6.19 -9.2,-3.23 -11.6,-11.07 -21.94,-15.78 -1.29,-0.59 -0.82,-0.27 -2.45,-1.19l-2.3 -1.43c-7.01,-4.41 -5.35,-1.88 -10.85,-8.03l-11.03 -7.86c-3.01,-2.46 -4.47,-4.91 -7.62,-6.9 -1.37,-0.86 -3.23,-2.19 -4.37,-3.16 -3.14,-2.65 -4.84,-4.92 -8.24,-7.17 -3,-1.97 -5.9,-6.68 -11.6,-11.91 -1.94,-1.78 -2.83,-2.08 -4.28,-3.32l-1 -0.96c-0.74,-0.78 -0.21,-0.27 -0.9,-1.1 -4.78,-5.85 -7.28,-9.78 -13.44,-14.01 -5.45,-3.75 -6.57,-9.72 -10.23,-14.03 -4.27,-5.03 -2.99,-2.15 -6.93,-9.18l-9.4 -15.29c-2.43,-2.89 -5.95,-4.74 -7.5,-8.12 -1.97,-4.29 -2.54,-8.62 -4.29,-13.34l-10.08 -24.19c-3.86,-8.95 -10.97,-35.15 -10.8,-45.97 0.05,-2.88 0.34,-5.52 0.17,-7.89l-4.07 -43.67c-0.25,-3.85 0.76,-3.11 0.12,-7.99 -1.22,-9.31 1.2,-15.24 1.09,-24.3 -0.06,-4.69 -1.07,-11.47 -0.64,-16.46 0.68,-7.81 -0.17,-9.25 2.34,-16.12l1.64 -10.18c0.23,-1.94 0.08,-1.91 0.07,-3.98 -0.04,-11.33 3.52,-20 2.99,-31.14 -0.49,-10.52 3.07,-20.05 4.33,-30.17 0.71,-5.75 0.83,-10.08 2.44,-15.27 1.37,-4.42 3.3,-8.96 2.82,-14.34 -0.14,-1.53 -1.47,-7.88 -2.04,-9.17l-0.76 -1.35c-1.46,-2.13 -3.12,-2.78 -5.14,-3.51 -4.85,2.43 -2.87,4.2 -5.68,7.7 -2.6,3.22 -3.89,2.26 -6.77,6.9 -2.34,3.78 -1.64,5.15 -3.93,8.72 -2.83,4.4 -3.91,2.94 -5.94,8.24 -1.58,4.14 -2.78,5.15 -5.22,8.67l-3.63 8.19c-0.98,3.57 -3.01,4.78 -4.5,8.3 -4.21,9.97 -9.05,16.06 -12.34,23.37l-6.21 16.1c-3.67,7.66 -5.87,15.83 -9.01,23.97l-7.55 18.37c-4.11,6.25 -1.52,13.52 -4.88,19.38 -3.43,5.99 -4.06,13.28 -5.24,19.98 -1.53,8.66 -4.19,16.4 -4.81,25.02l-2.85 15.86c-2.05,13.01 1.58,11.32 -1.53,27.18 -2.3,11.74 3.39,56.7 5.83,68.21z"/>
   <path class="fil4" d="M1196.6 1776.59c3.02,2.71 6.3,1.97 10.62,2.39 7.11,0.69 5.29,2 10.3,3.84 2.9,1.07 2.69,0.66 6.09,0.7 4.32,0.05 1.9,0.17 5.78,0.86 5.15,0.91 6.91,-0.13 11.34,2.31 5.07,2.79 10.74,3.78 16.57,4.31 4.12,0.37 7.64,0.1 11.65,1.85l10.95 2.98c6.2,0.71 11.79,0.81 17.24,3.16l2.56 1.05c6.33,2.15 14.7,0 19.65,4.29 3.49,3.03 6.12,2.55 11.1,3.02 4.29,0.41 8.24,-0.22 11.58,1.8 5.75,3.48 8.39,1.8 13.37,4.24 11.18,5.46 14.98,3.81 20.45,5.82l18.88 8c4.23,2.17 4.84,3.87 9.75,6.09 0.18,0.08 0.43,0.21 0.6,0.29l1.23 0.59c9.97,4.3 6.41,5.27 12.05,6.49 8.3,1.8 8.66,6.45 13.5,8.73 1.42,0.67 3.24,0.96 5.24,1.87 3.23,1.47 3.69,3.17 6.56,4.76 4.41,2.44 7.7,3.47 11.14,7.43 2.67,3.07 5.57,4.23 8.55,6.8 4.26,3.68 9.41,5.43 12.79,9.99 2.44,3.29 7.49,4.6 12.92,9.92 8.2,8.02 9.91,6.54 17.63,17.36 1.05,1.46 0.95,1.25 1.9,2.16 3.47,3.33 4.4,2.89 8.09,7.26 4.17,4.95 2.57,5.15 5.51,10.11 2.16,3.63 4.9,3.07 7.49,8.2 1.37,2.71 1.38,3.67 2.88,5.7 1.33,1.81 2.34,2.16 3.58,4.25l13.72 18.63c2.27,3.65 3.73,6.49 5.58,11.07 3.32,8.24 3.83,2.13 6.97,9.21 3.93,8.87 7.33,14.92 10.02,24.32 1.54,5.36 3.19,7.34 5.71,11.29 2.43,3.82 3.2,7.02 5.32,11.7l16.07 34.66c2.29,9.11 7.45,15.24 9.95,24.3 2.33,8.45 6.7,25.19 11.77,31.77l8.04 17.2c3.47,9.28 4.49,18.5 7.76,27.89 3.8,10.92 8.47,29.47 13.35,39.24 6.1,12.23 8.53,25.23 13.5,38.8 4.47,12.2 9.53,34.53 22.31,40.02 6.13,2.63 8.15,-5.96 9.46,-10.64 1.57,-5.61 3.57,-3.96 5.31,-12.63l6.04 -36.35c0.41,-2.8 0.55,-4.34 1.11,-7.38 1.37,-7.53 1.64,-7.14 1.61,-15.13 -0.05,-11.16 2.81,-16.1 2.99,-22.14 0.09,-3.24 -0.69,-5.47 -0.88,-8.77 -0.13,-2.23 0.29,-5.17 0.33,-7.73 0.06,-3.44 -0.91,-5.53 -1.03,-8.81l0.24 -7.88c-0.13,-6 2.99,-7.97 3,-14.04 0.03,-8.57 -5.06,-50.48 -6.49,-60.67 -1.09,-7.79 -0.03,-1.34 0.64,-7.46 0.35,-3.2 -0.68,-5.52 -1.24,-8.97 -2.47,-15.35 -4.84,-34.65 -9.95,-49.44 -2.28,-6.59 -4.73,-12.34 -7.37,-18.33 -5.56,-12.62 -8.22,-26.43 -12.69,-40.11 -1.39,-4.23 -5.53,-11.98 -8.75,-15.16 -1.43,-1.41 0.29,0.82 -1.36,-1.48l-7.28 -14.84c-3.27,-5.85 -2.7,-13.04 -8.05,-17.63 -11.6,-9.94 -8.55,-20.71 -18.97,-29.08 -1.98,-1.6 -4.15,-3.69 -5.75,-5.87 -1.6,-2.18 -2.85,-5.56 -4.48,-7.98 -2.78,-4.14 -6.71,-4.3 -11.7,-11.71 -6.92,-10.29 -6.7,-10.87 -16.78,-19.01 -1.28,-1.03 -2.01,-1.49 -3.26,-2.42l-1.08 -0.8c-5.46,-4.28 -6.46,-8.13 -13.71,-13.61 -5.46,-4.13 -4.48,-7.84 -11.7,-11.81l-10.33 -6.3c-2.56,-2.48 -2.27,-4.01 -5.85,-4.91l-5.78 -2.08c-3.6,-2.2 -4.05,-4.72 -8.07,-6.27l-10.96 -5.4c-3.17,-1.58 -4.1,-3.46 -6.81,-4.41 -6.55,-2.28 -4.73,-0.66 -11.24,-4.94 -1.75,-1.15 -1.78,-1.46 -3.36,-2.25 -2.78,-1.39 -5.56,-1.24 -7.93,-2.67 -2.76,-1.66 -2.71,-2.78 -6.46,-3.82 -11.67,-3.22 -7.66,-5.94 -14.89,-6.86 -3.47,-0.44 -6.67,0.15 -9.62,-0.17 -7.02,-0.75 -12.49,-5.21 -20.35,-5.87l-6.64 -0.74c-0.19,-0.06 -0.44,-0.18 -0.63,-0.25 -9.26,-3.28 -6.4,-6.59 -21.82,-5.11 -6.68,0.64 -12.35,-2.17 -18.76,-4.22 -1.92,-0.62 0.11,-0.15 -1.99,-0.62 -6.69,-1.51 -22.6,2.56 -34.19,0.49 -17.73,-3.16 -53.21,4.19 -73.2,8.37l-20.7 3.48c-6.93,1.47 -58.67,14.35 -63.46,17.86 -5.44,3.98 -6.92,3.84 -6.01,10.91l1.28 4.92z"/>
  </g>
 </g>
</svg>
